<?xml version="1.0" encoding="UTF-8" standalone="no"?><!DOCTYPE svg PUBLIC "-//W3C//DTD SVG 1.1//EN" "http://www.w3.org/Graphics/SVG/1.1/DTD/svg11.dtd"><svg width="25px" height="25px" version="1.1" xmlns="http://www.w3.org/2000/svg" xmlns:xlink="http://www.w3.org/1999/xlink" xml:space="preserve" xmlns:serif="http://www.serif.com/" style="fill-rule:evenodd;clip-rule:evenodd;stroke-linejoin:round;stroke-miterlimit:2;"><g transform="matrix(1,0,0,1,-8350.34,-1766.83)"><g transform="matrix(0.566797,0,0,0.407865,-848.099,1096.52)"><g transform="matrix(1.7643,0,0,2.45179,-9867.99,-991.193)"><g id="bt_cerrar-Interactivo-" serif:id="bt_cerrar(Interactivo)"><g><g transform="matrix(1,0,0,1,-1092.22,-1128.29)"><path d="M15908.2,2206.52C15908.2,2204.51 15906.5,2202.87 15904.5,2202.87L15887.5,2202.87C15885.4,2202.87 15883.8,2204.51 15883.8,2206.52L15883.8,2223.58C15883.8,2225.6 15885.4,2227.24 15887.5,2227.24L15904.5,2227.24C15906.5,2227.24 15908.2,2225.6 15908.2,2223.58L15908.2,2206.52Z" style="fill:rgb(197,56,57);"/></g><g transform="matrix(2.09789,0,0,2.06685,-18648.5,-3478.91)"><g transform="matrix(10.191,0,0,10.191,15942.1,2212.62)"><path d="M0.479,-0.699L0.667,-0.699L0.449,-0.362L0.685,-0L0.495,-0L0.346,-0.23L0.198,-0L0.01,-0L0.245,-0.358L0.026,-0.699L0.213,-0.699L0.346,-0.492L0.479,-0.699Z" style="fill:white;fill-rule:nonzero;"/></g></g></g></g></g></g></g></svg>