<?xml version="1.0" encoding="UTF-8" standalone="no"?>
<!DOCTYPE svg PUBLIC "-//W3C//DTD SVG 1.1//EN" "http://www.w3.org/Graphics/SVG/1.1/DTD/svg11.dtd">
<svg width="274px" height="250px" version="1.1" xmlns="http://www.w3.org/2000/svg" xmlns:xlink="http://www.w3.org/1999/xlink" xml:space="preserve" xmlns:serif="http://www.serif.com/" style="fill-rule:evenodd;clip-rule:evenodd;stroke-linejoin:round;stroke-miterlimit:2;">
    <g transform="matrix(1,0,0,1,-2518,-531.813)">
        <g transform="matrix(1,0,0,1,3446.59,6.47525)">
            <g transform="matrix(1.58465,0,0,1,-1194.02,424.259)">
                <path d="M168.933,350.5C168.142,350.5 167.5,349.483 167.5,348.228C167.5,338.185 167.5,297.817 167.5,287.772C167.5,287.169 167.651,286.592 167.92,286.166C168.189,285.74 168.554,285.5 168.934,285.5C184.559,285.503 322.943,285.526 338.567,285.529C339.358,285.529 340,286.546 340,287.801C340,297.844 340,338.212 340,348.257C340,348.86 339.849,349.437 339.58,349.863C339.311,350.289 338.946,350.529 338.566,350.529C322.941,350.526 184.557,350.503 168.933,350.5Z" style="fill:rgb(74,179,252);fill-rule:nonzero;"/>
            </g>
        </g>
        <g transform="matrix(1,0,0,1,3446.59,6.47525)">
            <g transform="matrix(1.58465,0,0,1,-1194.02,332.976)">
                <path d="M168.933,350.5C168.142,350.5 167.5,349.483 167.5,348.228C167.5,338.185 167.5,297.817 167.5,287.772C167.5,287.169 167.651,286.592 167.92,286.166C168.189,285.74 168.554,285.5 168.934,285.5C184.559,285.503 322.943,285.526 338.567,285.529C339.358,285.529 340,286.546 340,287.801C340,297.844 340,338.212 340,348.257C340,348.86 339.849,349.437 339.58,349.863C339.311,350.289 338.946,350.529 338.566,350.529C322.941,350.526 184.557,350.503 168.933,350.5Z" style="fill:rgb(74,179,252);fill-rule:nonzero;"/>
            </g>
        </g>
        <g transform="matrix(1,0,0,1,3446.59,6.47525)">
            <g transform="matrix(1.58465,0,0,1,-1194.02,239.838)">
                <path d="M168.933,350.5C168.142,350.5 167.5,349.483 167.5,348.228C167.5,338.185 167.5,297.817 167.5,287.772C167.5,287.169 167.651,286.592 167.92,286.166C168.189,285.74 168.554,285.5 168.934,285.5C184.559,285.503 322.943,285.526 338.567,285.529C339.358,285.529 340,286.546 340,287.801C340,297.844 340,338.212 340,348.257C340,348.86 339.849,349.437 339.58,349.863C339.311,350.289 338.946,350.529 338.566,350.529C322.941,350.526 184.557,350.503 168.933,350.5Z" style="fill:rgb(74,179,252);fill-rule:nonzero;"/>
            </g>
        </g>
        <g transform="matrix(1,0,0,1,3446.59,6.47525)">
            <g transform="matrix(1.58465,0,0,1,-850.673,649.288)">
                <path d="M-49.171,60.5C-49.171,60.5 105.334,60.526 121.896,60.529C122.687,60.529 123.329,61.546 123.329,62.801C123.329,68.765 123.329,84.82 123.329,90.785C123.329,91.387 123.178,91.965 122.909,92.391C122.64,92.817 122.275,93.057 121.895,93.057C105.331,93.051 -49.171,92.999 -49.171,92.999" style="fill:rgb(74,179,252);fill-opacity:0.5;fill-rule:nonzero;"/>
            </g>
        </g>
        <g transform="matrix(1,0,0,1,3446.59,6.47525)">
            <g transform="matrix(1.58465,0,0,1,-850.673,558.005)">
                <path d="M-49.171,60.5C-49.171,60.5 105.334,60.526 121.896,60.529C122.687,60.529 123.329,61.546 123.329,62.801C123.329,68.765 123.329,84.82 123.329,90.785C123.329,91.387 123.178,91.965 122.909,92.391C122.64,92.817 122.275,93.057 121.895,93.057C105.331,93.051 -49.171,92.999 -49.171,92.999" style="fill:rgb(74,179,252);fill-opacity:0.5;fill-rule:nonzero;"/>
            </g>
        </g>
        <g transform="matrix(1,0,0,1,3446.59,6.47525)">
            <g transform="matrix(1.58465,0,0,1,-850.673,464.867)">
                <path d="M-49.171,60.5C-49.171,60.5 105.334,60.526 121.896,60.529C122.687,60.529 123.329,61.546 123.329,62.801C123.329,68.765 123.329,84.82 123.329,90.785C123.329,91.387 123.178,91.965 122.909,92.391C122.64,92.817 122.275,93.057 121.895,93.057C105.331,93.051 -49.171,92.999 -49.171,92.999" style="fill:rgb(74,179,252);fill-opacity:0.5;fill-rule:nonzero;"/>
            </g>
        </g>
    </g>
</svg>
