<?xml version="1.0" encoding="UTF-8" standalone="no"?><!DOCTYPE svg PUBLIC "-//W3C//DTD SVG 1.1//EN" "http://www.w3.org/Graphics/SVG/1.1/DTD/svg11.dtd"><svg width="41px" height="72px" version="1.1" xmlns="http://www.w3.org/2000/svg" xmlns:xlink="http://www.w3.org/1999/xlink" xml:space="preserve" xmlns:serif="http://www.serif.com/" style="fill-rule:evenodd;clip-rule:evenodd;stroke-linejoin:round;stroke-miterlimit:2;"><g transform="matrix(1,0,0,1,-99.1726,-572.964)"><g transform="matrix(1,0,0,1,-1824.87,1381.34)"><g transform="matrix(-1,0,0,1,2692.46,-1253.57)"><path d="M757.829,480.865L728.525,451.562C727.729,450.766 727.729,449.473 728.525,448.677L731.41,445.792C732.206,444.996 733.499,444.996 734.295,445.792L767.815,479.313C768.242,479.739 768.44,480.307 768.409,480.865C768.44,481.424 768.242,481.992 767.815,482.418L734.295,515.939C733.499,516.735 732.206,516.735 731.41,515.939L728.525,513.054C727.729,512.258 727.729,510.965 728.525,510.169L757.829,480.865Z" style="fill:rgb(188,188,188);fill-opacity:0.6;"/></g></g></g></svg>