<?xml version="1.0" encoding="UTF-8" standalone="no"?><!DOCTYPE svg PUBLIC "-//W3C//DTD SVG 1.1//EN" "http://www.w3.org/Graphics/SVG/1.1/DTD/svg11.dtd"><svg width="96px" height="120px" version="1.1" xmlns="http://www.w3.org/2000/svg" xmlns:xlink="http://www.w3.org/1999/xlink" xml:space="preserve" xmlns:serif="http://www.serif.com/" style="fill-rule:evenodd;clip-rule:evenodd;stroke-linejoin:round;stroke-miterlimit:2;"><g transform="matrix(1,0,0,1,-7746.98,-1766.83)"><g transform="matrix(0.566797,0,0,0.407865,-848.099,1096.52)"><g transform="matrix(1.7643,0,0,-2.56993,2626.76,6348.71)"><path d="M7202.07,1753.25L7106.24,1753.25L7106.24,1822.99C7106.24,1827.36 7109.94,1830.89 7114.52,1830.89C7132.64,1830.89 7175.67,1830.89 7193.79,1830.89C7198.37,1830.89 7202.07,1827.36 7202.07,1822.99C7202.07,1803.24 7202.07,1753.25 7202.07,1753.25Z" style="fill:rgb(251,251,251);"/></g><g transform="matrix(1.21702,0,0,1.21702,-3309.31,-382.839)"><g transform="matrix(0.930016,0,0,0.989838,1771.63,910.437)"><path d="M14546,796.528C14546,792.911 14543.8,789.973 14541,789.973L14441.8,789.973C14439,789.973 14436.8,792.911 14436.8,796.528L14436.8,892.666C14436.8,896.284 14439,899.221 14441.8,899.221L14541,899.221C14543.8,899.221 14546,896.284 14546,892.666L14546,796.528Z" style="fill:rgb(215,215,215);"/></g><g transform="matrix(0.930016,0,0,-1.72003,1771.63,3159.3)"><path d="M14546,794.899C14546,792.18 14543.1,789.973 14539.4,789.973L14443.3,789.973C14439.7,789.973 14436.8,792.18 14436.8,794.899L14436.8,809.498L14546,809.498L14546,794.899Z" style="fill:rgb(157,157,156);"/></g><g transform="matrix(1.56777e-17,-0.355805,0.809977,6.89231e-17,14494,6775.14)"><path d="M14059.8,880.678C14059.8,880.44 14059.2,880.248 14058.4,880.248L13998.6,880.248C13997.9,880.248 13997.2,880.44 13997.2,880.678L13997.2,884.117C13997.2,884.355 13997.9,884.547 13998.6,884.547L14058.4,884.547C14059.2,884.547 14059.8,884.355 14059.8,884.117L14059.8,880.678Z" style="fill:white;"/></g><g transform="matrix(1.56777e-17,-0.355805,0.809977,6.89231e-17,14501.9,6775.14)"><path d="M14059.8,880.678C14059.8,880.44 14059.2,880.248 14058.4,880.248L13998.6,880.248C13997.9,880.248 13997.2,880.44 13997.2,880.678L13997.2,884.117C13997.2,884.355 13997.9,884.547 13998.6,884.547L14058.4,884.547C14059.2,884.547 14059.8,884.355 14059.8,884.117L14059.8,880.678Z" style="fill:white;"/></g><g transform="matrix(1.07068,3.79697e-32,6.53381e-33,1.1256,237.288,790.503)"><path d="M14059.8,880.678C14059.8,880.44 14059.6,880.248 14059.5,880.248L13997.6,880.248C13997.4,880.248 13997.2,880.44 13997.2,880.678L13997.2,884.117C13997.2,884.355 13997.4,884.547 13997.6,884.547L14059.5,884.547C14059.6,884.547 14059.8,884.355 14059.8,884.117L14059.8,880.678Z" style="fill:rgb(226,229,231);"/></g><g transform="matrix(0.284023,1.00723e-32,6.53381e-33,1.1256,11248.4,790.503)"><path d="M14059.8,880.678C14059.8,880.44 14059.2,880.248 14058.6,880.248L13998.5,880.248C13997.8,880.248 13997.2,880.44 13997.2,880.678L13997.2,884.117C13997.2,884.355 13997.8,884.547 13998.5,884.547L14058.6,884.547C14059.2,884.547 14059.8,884.355 14059.8,884.117L14059.8,880.678Z" style="fill:rgb(0,153,255);"/></g><g transform="matrix(1.06017,0,0,1.47329,-132.654,409.128)"><circle cx="14501.7" cy="933.017" r="3.51" style="fill:white;"/></g><g transform="matrix(4.99985e-17,1.13472,-0.653537,5.56112e-17,15927.5,-14561.8)"><path d="M14363,1022.35L14379.1,1054.42L14347,1054.42L14363,1022.35Z" style="fill:white;"/></g></g><g transform="matrix(1.7643,0,0,2.56993,2626.76,-2769.57)"><path d="M7202.07,1792.09L7106.24,1792.09C7106.24,1792.09 7106.24,1811.65 7106.24,1822.99C7106.24,1827.36 7109.94,1830.89 7114.52,1830.89C7132.64,1830.89 7175.67,1830.89 7193.79,1830.89C7198.37,1830.89 7202.07,1827.36 7202.07,1822.99C7202.07,1811.65 7202.07,1792.09 7202.07,1792.09Z" style="fill:rgb(181,54,40);"/></g><g transform="matrix(2.34716,0,0,3.26177,-17173.5,-973.981)"><g transform="matrix(21.0469,0,0,21.0469,13795.2,884.125)"><path d="M0.344,-0.254L0.522,-0.699L0.691,-0.699L0.41,-0L0.278,-0L-0.003,-0.699L0.166,-0.699L0.344,-0.254Z" style="fill:white;fill-rule:nonzero;"/></g><g transform="matrix(21.0469,0,0,21.0469,13809.7,884.125)"><rect x="0.086" y="-0.699" width="0.156" height="0.699" style="fill:white;fill-rule:nonzero;"/></g><g transform="matrix(21.0469,0,0,21.0469,13816.6,884.125)"><path d="M0.333,-0.699C0.458,-0.699 0.553,-0.669 0.62,-0.608C0.687,-0.547 0.72,-0.462 0.72,-0.353C0.72,-0.244 0.688,-0.158 0.623,-0.095C0.558,-0.032 0.458,-0 0.325,-0L0.086,-0L0.086,-0.699L0.333,-0.699ZM0.341,-0.138C0.412,-0.138 0.467,-0.156 0.506,-0.192C0.544,-0.228 0.563,-0.28 0.563,-0.349C0.563,-0.418 0.544,-0.471 0.506,-0.508C0.467,-0.545 0.408,-0.563 0.329,-0.563L0.242,-0.563L0.242,-0.138L0.341,-0.138Z" style="fill:white;fill-rule:nonzero;"/></g></g></g></g></svg>