<?xml version="1.0" encoding="UTF-8" standalone="no"?><!DOCTYPE svg PUBLIC "-//W3C//DTD SVG 1.1//EN" "http://www.w3.org/Graphics/SVG/1.1/DTD/svg11.dtd"><svg width="96px" height="120px" version="1.1" xmlns="http://www.w3.org/2000/svg" xmlns:xlink="http://www.w3.org/1999/xlink" xml:space="preserve" xmlns:serif="http://www.serif.com/" style="fill-rule:evenodd;clip-rule:evenodd;stroke-linejoin:round;stroke-miterlimit:2;"><g transform="matrix(1,0,0,1,-7586.14,-1766.83)"><g transform="matrix(0.566797,0,0,0.407865,-848.099,1096.52)"><g transform="matrix(1.7643,0,0,-2.56993,2342.99,6348.71)"><path d="M7202.07,1753.25L7106.24,1753.25L7106.24,1822.99C7106.24,1827.36 7109.94,1830.89 7114.52,1830.89C7132.64,1830.89 7175.67,1830.89 7193.79,1830.89C7198.37,1830.89 7202.07,1827.36 7202.07,1822.99C7202.07,1803.24 7202.07,1753.25 7202.07,1753.25Z" style="fill:rgb(251,251,251);"/></g><g transform="matrix(1,0,0,1,656.85,67.6939)"><g transform="matrix(0.147672,0,0,0.160606,13192.7,1424.13)"><rect x="7106.24" y="1792.09" width="95.836" height="38.801" style="fill:rgb(167,187,190);"/></g><g transform="matrix(0.147672,0,0,0.160606,13192.7,1453.98)"><rect x="7106.24" y="1792.09" width="95.836" height="38.801" style="fill:rgb(167,187,190);"/></g><g transform="matrix(0.543783,0,0,0.160606,10397.9,1424.13)"><rect x="7106.24" y="1792.09" width="95.836" height="38.801" style="fill:rgb(167,187,190);"/></g><g transform="matrix(0.543783,0,0,0.160606,10397.9,1453.98)"><rect x="7106.24" y="1792.09" width="95.836" height="38.801" style="fill:rgb(167,187,190);"/></g><g transform="matrix(-0.321862,0,0,0.160606,16588.3,1360.5)"><rect x="7106.24" y="1792.09" width="95.836" height="38.801" style="fill:rgb(167,187,190);"/></g><g transform="matrix(-0.787209,0,0,0.353533,19910.2,976.56)"><rect x="7106.24" y="1792.09" width="95.836" height="38.801" style="fill:rgb(167,187,190);"/></g><g transform="matrix(0.321862,0,0,0.160606,12036,1453.98)"><rect x="7106.24" y="1792.09" width="95.836" height="38.801" style="fill:rgb(167,187,190);"/></g><g transform="matrix(-0.321862,0,0,0.160606,16588.3,1390.35)"><rect x="7106.24" y="1792.09" width="95.836" height="38.801" style="fill:rgb(167,187,190);"/></g><g transform="matrix(-0.507183,0,0,1.82919,17980,-1631.77)"><rect x="7106.24" y="1792.09" width="95.836" height="38.801" style="fill:rgb(167,187,190);"/></g><g transform="matrix(-0.240261,0,0,0.160606,16022.7,1374.71)"><rect x="7106.24" y="1792.09" width="95.836" height="38.801" style="fill:rgb(167,187,190);"/></g><g transform="matrix(-0.240261,0,0,0.160606,16022.7,1404.56)"><rect x="7106.24" y="1792.09" width="95.836" height="38.801" style="fill:rgb(167,187,190);"/></g><g transform="matrix(-0.315611,0,0,0.160606,16526.3,1374.71)"><rect x="7106.24" y="1792.09" width="95.836" height="38.801" style="fill:rgb(167,187,190);"/></g><g transform="matrix(-0.315611,0,0,0.160606,16526.3,1404.56)"><rect x="7106.24" y="1792.09" width="95.836" height="38.801" style="fill:rgb(167,187,190);"/></g><g transform="matrix(-0.192142,0,0,0.160606,15625.9,1360.5)"><rect x="7106.24" y="1792.09" width="95.836" height="38.801" style="fill:rgb(167,187,190);"/></g><g transform="matrix(-0.192142,0,0,0.160606,15625.9,1390.35)"><rect x="7106.24" y="1792.09" width="95.836" height="38.801" style="fill:rgb(167,187,190);"/></g><g transform="matrix(-0.0706427,0,0,0.160606,14750.9,1374.71)"><rect x="7106.24" y="1792.09" width="95.836" height="38.801" style="fill:rgb(167,187,190);"/></g><g transform="matrix(-0.0706427,0,0,0.160606,14750.9,1404.56)"><rect x="7106.24" y="1792.09" width="95.836" height="38.801" style="fill:rgb(167,187,190);"/></g></g><g transform="matrix(0.906495,0,0,1.25973,1949.38,646.844)"><circle cx="14285.5" cy="807.152" r="5.069" style="fill:rgb(247,90,60);"/></g><g transform="matrix(0.906495,0,0,1.25973,1960.32,646.844)"><circle cx="14285.5" cy="807.152" r="5.069" style="fill:rgb(255,202,28);"/></g><g transform="matrix(0.906495,0,0,1.25973,1971.33,646.844)"><circle cx="14285.5" cy="807.152" r="5.069" style="fill:rgb(144,214,80);"/></g><g transform="matrix(1.7643,0,0,2.56993,2342.99,-2769.57)"><path d="M7202.07,1792.09L7106.24,1792.09C7106.24,1792.09 7106.24,1811.65 7106.24,1822.99C7106.24,1827.36 7109.94,1830.89 7114.52,1830.89C7132.64,1830.89 7175.67,1830.89 7193.79,1830.89C7198.37,1830.89 7202.07,1827.36 7202.07,1822.99C7202.07,1811.65 7202.07,1792.09 7202.07,1792.09Z" style="fill:rgb(17,181,206);"/></g><g transform="matrix(1.70721,0,0,2.37245,-8617.12,-187.714)"><g transform="matrix(28.9364,0,0,28.9364,13779.8,884.125)"><path d="M0.304,-0.297L0.428,-0.699L0.591,-0.699L0.714,-0.297L0.853,-0.699L1.022,-0.699L0.778,-0L0.662,-0L0.509,-0.486L0.357,-0L0.241,-0L-0.003,-0.699L0.166,-0.699L0.304,-0.297Z" style="fill:white;fill-rule:nonzero;"/></g><g transform="matrix(28.9364,0,0,28.9364,13809.3,884.125)"><path d="M0.59,-0.699L0.59,-0.56L0.242,-0.56L0.242,-0.416L0.555,-0.416L0.555,-0.283L0.242,-0.283L0.242,-0.138L0.601,-0.138L0.601,-0L0.086,-0L0.086,-0.699L0.59,-0.699Z" style="fill:white;fill-rule:nonzero;"/></g><g transform="matrix(28.9364,0,0,28.9364,13828.2,884.125)"><path d="M0.392,-0L0.086,-0L0.086,-0.699L0.358,-0.699C0.405,-0.699 0.446,-0.693 0.481,-0.682C0.515,-0.671 0.541,-0.655 0.558,-0.636C0.589,-0.6 0.605,-0.559 0.605,-0.514C0.605,-0.459 0.587,-0.419 0.552,-0.392C0.54,-0.383 0.532,-0.377 0.527,-0.375C0.522,-0.372 0.514,-0.368 0.502,-0.363C0.545,-0.354 0.58,-0.334 0.606,-0.305C0.631,-0.275 0.644,-0.238 0.644,-0.194C0.644,-0.145 0.627,-0.102 0.594,-0.065C0.555,-0.022 0.488,-0 0.392,-0ZM0.242,-0.416L0.316,-0.416C0.359,-0.416 0.392,-0.421 0.413,-0.43C0.434,-0.439 0.444,-0.46 0.444,-0.491C0.444,-0.522 0.434,-0.542 0.415,-0.552C0.396,-0.562 0.363,-0.567 0.317,-0.567L0.242,-0.567L0.242,-0.416ZM0.242,-0.132L0.349,-0.132C0.394,-0.132 0.427,-0.137 0.45,-0.149C0.472,-0.16 0.483,-0.181 0.483,-0.214C0.483,-0.246 0.471,-0.267 0.448,-0.278C0.424,-0.288 0.386,-0.293 0.334,-0.293L0.242,-0.293L0.242,-0.132Z" style="fill:white;fill-rule:nonzero;"/></g></g></g></g></svg>