<?xml version="1.0" encoding="UTF-8" standalone="no"?>
<!DOCTYPE svg PUBLIC "-//W3C//DTD SVG 1.1//EN" "http://www.w3.org/Graphics/SVG/1.1/DTD/svg11.dtd">
<svg width="237px" height="135px" version="1.1" xmlns="http://www.w3.org/2000/svg" xmlns:xlink="http://www.w3.org/1999/xlink" xml:space="preserve" xmlns:serif="http://www.serif.com/" style="fill-rule:evenodd;clip-rule:evenodd;stroke-linejoin:round;stroke-miterlimit:2;">
    <g transform="matrix(1,0,0,1,-2193.96,-3100.94)">
        <g transform="matrix(0.415728,0,0,0.415728,2334.97,3100.6)">
            <g transform="matrix(1,0,0,1,-340.274,-1.81899e-12)">
                <path d="M150.149,216.25C150.149,215.868 150.453,215.533 150.861,215.533L159.829,215.533C164.399,215.533 168.165,219.257 168.165,223.764C168.165,228.378 164.399,232.136 159.866,232.136L155.959,232.136L155.959,240.878C155.959,241.245 155.625,241.584 155.247,241.584L150.861,241.584C150.453,241.584 150.149,241.245 150.149,240.878L150.149,216.25ZM159.495,226.699C161.09,226.699 162.433,225.434 162.433,223.764C162.433,222.201 161.09,221.01 159.495,221.01L155.959,221.01L155.959,226.699L159.495,226.699Z" style="fill:rgb(41,51,87);fill-rule:nonzero;"/>
                <path d="M188.367,215.168C195.814,215.168 201.764,221.151 201.764,228.602C201.764,236.04 195.814,241.96 188.367,241.96C180.925,241.96 175.009,236.04 175.009,228.602C175.009,221.151 180.925,215.168 188.367,215.168M188.367,236.005C192.464,236.005 195.814,232.653 195.814,228.602C195.814,224.505 192.464,221.12 188.367,221.12C184.318,221.12 180.959,224.505 180.959,228.602C180.959,232.653 184.318,236.005 188.367,236.005" style="fill:rgb(41,51,87);fill-rule:nonzero;"/>
                <path d="M210.316,216.248C210.316,215.868 210.616,215.531 211.024,215.531L215.453,215.531C215.828,215.531 216.159,215.868 216.159,216.248L216.159,236.114L225.017,236.114C225.422,236.114 225.72,236.449 225.72,236.824L225.72,240.876C225.72,241.249 225.422,241.588 225.017,241.588L211.024,241.588C210.616,241.588 210.316,241.249 210.316,240.876L210.316,216.248Z" style="fill:rgb(41,51,87);fill-rule:nonzero;"/>
                <path d="M235.438,216.248C235.438,215.868 235.771,215.531 236.15,215.531L240.61,215.531C240.983,215.531 241.318,215.868 241.318,216.248L241.318,240.876C241.318,241.249 240.983,241.588 240.61,241.588L236.15,241.588C235.771,241.588 235.438,241.249 235.438,240.876L235.438,216.248Z" style="fill:rgb(41,51,87);fill-rule:nonzero;"/>
                <path d="M257.183,221.01L251.856,221.01C251.453,221.01 251.152,220.675 251.152,220.3L251.152,216.248C251.152,215.869 251.453,215.532 251.856,215.532L268.379,215.532C268.791,215.532 269.084,215.869 269.084,216.248L269.084,220.3C269.084,220.675 268.791,221.01 268.379,221.01L263.06,221.01L263.06,240.876C263.06,241.25 262.726,241.588 262.352,241.588L257.885,241.588C257.517,241.588 257.183,241.25 257.183,240.876L257.183,221.01Z" style="fill:rgb(41,51,87);fill-rule:nonzero;"/>
                <path d="M278.746,216.249C278.746,215.869 279.035,215.534 279.447,215.534L294.85,215.534C295.253,215.534 295.555,215.869 295.555,216.249L295.555,220.302C295.555,220.673 295.253,221.01 294.85,221.01L284.541,221.01L284.541,225.62L293.028,225.62C293.397,225.62 293.729,225.959 293.729,226.326L293.729,230.384C293.729,230.796 293.397,231.09 293.028,231.09L284.541,231.09L284.541,236.117L294.85,236.117C295.253,236.117 295.555,236.449 295.555,236.823L295.555,240.879C295.555,241.25 295.253,241.582 294.85,241.582L279.447,241.582C279.035,241.582 278.746,241.25 278.746,240.879L278.746,216.249ZM283.686,212.89L282.905,211.332C282.758,211.034 282.943,210.771 283.133,210.63L289.456,206.756C289.68,206.607 290.235,206.536 290.42,206.87L291.689,209.067C291.981,209.622 291.763,209.991 291.463,210.181L284.692,213.229C284.207,213.523 283.872,213.274 283.686,212.89" style="fill:rgb(41,51,87);fill-rule:nonzero;"/>
                <path d="M317.273,215.167C320.999,215.167 323.746,216.32 326.276,218.627C326.613,218.921 326.613,219.37 326.315,219.665L323.412,222.678C323.159,222.942 322.749,222.942 322.488,222.678C321.1,221.455 319.291,220.788 317.461,220.788C313.254,220.788 310.168,224.284 310.168,228.45C310.168,232.584 313.291,236.002 317.502,236.002C319.25,236.002 321.145,235.368 322.488,234.217C322.749,233.995 323.226,233.995 323.457,234.252L326.354,237.341C326.613,237.606 326.58,238.09 326.315,238.344C323.792,240.798 320.593,241.96 317.273,241.96C309.831,241.96 303.843,236.039 303.843,228.603C303.843,221.155 309.831,215.167 317.273,215.167" style="fill:rgb(41,51,87);fill-rule:nonzero;"/>
                <path d="M335.943,215.834C335.943,215.463 336.288,215.167 336.653,215.167L337.588,215.167L352.429,229.454L352.466,229.454L352.466,216.246C352.466,215.868 352.764,215.534 353.18,215.534L357.635,215.534C358.013,215.534 358.35,215.868 358.35,216.246L358.35,241.291C358.35,241.655 358.013,241.959 357.635,241.959L357.048,241.959C356.934,241.959 356.636,241.847 356.563,241.77L341.859,226.995L341.829,226.995L341.829,240.878C341.829,241.245 341.525,241.584 341.123,241.584L336.694,241.584C336.323,241.584 335.986,241.245 335.986,240.878L335.943,215.834Z" style="fill:rgb(41,51,87);fill-rule:nonzero;"/>
                <path d="M369.948,216.248C369.948,215.868 370.284,215.531 370.654,215.531L375.119,215.531C375.495,215.531 375.829,215.868 375.829,216.248L375.829,240.876C375.829,241.249 375.495,241.588 375.119,241.588L370.654,241.588C370.284,241.588 369.948,241.249 369.948,240.876L369.948,216.248Z" style="fill:rgb(41,51,87);fill-rule:nonzero;"/>
                <path d="M398.391,215.167C402.103,215.167 404.862,216.32 407.39,218.627C407.724,218.921 407.724,219.37 407.431,219.665L404.527,222.678C404.268,222.942 403.856,222.942 403.599,222.678C402.218,221.455 400.398,220.788 398.57,220.788C394.361,220.788 391.275,224.284 391.275,228.45C391.275,232.584 394.409,236.002 398.613,236.002C400.357,236.002 402.261,235.368 403.599,234.217C403.856,233.995 404.337,233.995 404.564,234.252L407.465,237.341C407.724,237.606 407.687,238.09 407.431,238.344C404.901,240.798 401.704,241.96 398.391,241.96C390.94,241.96 384.955,236.039 384.955,228.603C384.955,221.155 390.94,215.167 398.391,215.167" style="fill:rgb(41,51,87);fill-rule:nonzero;"/>
                <path d="M427.834,215.168C435.285,215.168 441.238,221.151 441.238,228.602C441.238,236.04 435.285,241.96 427.834,241.96C420.4,241.96 414.48,236.04 414.48,228.602C414.48,221.151 420.4,215.168 427.834,215.168M427.834,236.005C431.933,236.005 435.285,232.653 435.285,228.602C435.285,224.505 431.933,221.12 427.834,221.12C423.789,221.12 420.426,224.505 420.426,228.602C420.426,232.653 423.789,236.005 427.834,236.005" style="fill:rgb(41,51,87);fill-rule:nonzero;"/>
                <path d="M161.65,257.958C164.782,257.958 168.205,259.264 170.733,261.459C171.065,261.714 171.102,262.165 170.806,262.465L167.864,265.586C167.57,265.852 167.156,265.852 166.862,265.629C165.449,264.323 163.809,263.842 161.987,263.842C157.933,263.842 154.652,267.265 154.652,271.358C154.652,275.407 157.965,278.765 162.024,278.765C163.101,278.765 164.221,278.61 165.335,278.163L165.335,276.009L162.988,276.009C162.585,276.009 162.28,275.711 162.28,275.342L162.28,271.651C162.28,271.245 162.585,270.95 162.988,270.95L170.463,270.95C170.847,270.95 171.141,271.284 171.141,271.651L171.182,281.664C171.182,281.852 171.024,282.145 170.875,282.26C170.875,282.26 167.044,284.671 161.65,284.671C154.244,284.671 148.292,278.798 148.292,271.358C148.292,263.913 154.244,257.958 161.65,257.958" style="fill:rgb(41,51,87);fill-rule:nonzero;"/>
                <path d="M183.263,259.004C183.263,258.629 183.563,258.296 183.975,258.296L195.1,258.296C199.563,258.296 203.205,261.907 203.205,266.332C203.205,269.756 200.949,272.51 197.705,273.815L202.795,283.267C203.067,283.751 202.795,284.34 202.171,284.34L197.219,284.34C196.926,284.34 196.699,284.163 196.626,284.005L191.676,274.148L189.106,274.148L189.106,283.638C189.106,284.005 188.771,284.34 188.404,284.34L183.975,284.34C183.563,284.34 183.263,284.005 183.263,283.638L183.263,259.004ZM194.614,269.423C196.142,269.423 197.442,268.007 197.442,266.446C197.442,264.884 196.142,263.615 194.614,263.615L189.106,263.615L189.106,269.423L194.614,269.423Z" style="fill:rgb(41,51,87);fill-rule:nonzero;"/>
                <path d="M210.693,283.376L222.346,258.334C222.446,258.109 222.716,257.922 222.97,257.922L223.348,257.922C223.607,257.922 223.864,258.109 223.978,258.334L235.627,283.376C235.85,283.862 235.55,284.341 234.989,284.341L230.864,284.341C230.195,284.341 229.892,284.116 229.558,283.415L228.219,280.473L218.099,280.473L216.759,283.447C216.573,283.894 216.163,284.341 215.422,284.341L211.328,284.341C210.769,284.341 210.469,283.862 210.693,283.376M225.99,275.407L223.162,269.275L223.124,269.275L220.326,275.407L225.99,275.407Z" style="fill:rgb(41,51,87);fill-rule:nonzero;"/>
                <path d="M243.837,258.593C243.837,258.219 244.171,257.922 244.545,257.922L245.475,257.922L260.327,272.213L260.364,272.213L260.364,259.003C260.364,258.63 260.657,258.295 261.066,258.295L265.531,258.295C265.902,258.295 266.235,258.63 266.235,259.003L266.235,284.047C266.235,284.419 265.902,284.721 265.531,284.721L264.933,284.721C264.819,284.721 264.53,284.608 264.452,284.531L249.755,269.756L249.714,269.756L249.714,283.639C249.714,284.004 249.42,284.341 249.013,284.341L244.582,284.341C244.21,284.341 243.882,284.004 243.882,283.639L243.837,258.593Z" style="fill:rgb(41,51,87);fill-rule:nonzero;"/>
                <path d="M289.112,257.923C292.831,257.923 295.585,259.076 298.115,261.385C298.451,261.685 298.451,262.13 298.149,262.425L295.251,265.441C294.996,265.702 294.584,265.702 294.318,265.441C292.943,264.213 291.128,263.543 289.299,263.543C285.097,263.543 282.011,267.038 282.011,271.208C282.011,275.339 285.134,278.763 289.337,278.763C291.089,278.763 292.98,278.13 294.318,276.98C294.584,276.757 295.056,276.757 295.287,277.017L298.188,280.103C298.451,280.36 298.413,280.854 298.149,281.109C295.622,283.561 292.423,284.722 289.112,284.722C281.674,284.722 275.684,278.799 275.684,271.359C275.684,263.913 281.674,257.923 289.112,257.923" style="fill:rgb(41,51,87);fill-rule:nonzero;"/>
                <path d="M318.819,257.927C326.27,257.927 332.214,263.914 332.214,271.356C332.214,278.799 326.27,284.715 318.819,284.715C311.377,284.715 305.465,278.799 305.465,271.356C305.465,263.914 311.377,257.927 318.819,257.927M318.819,278.762C322.911,278.762 326.27,275.408 326.27,271.356C326.27,267.26 322.911,263.882 318.819,263.882C314.765,263.882 311.418,267.26 311.418,271.356C311.418,275.408 314.765,278.762 318.819,278.762" style="fill:rgb(41,51,87);fill-rule:nonzero;"/>
                <path d="M341.137,259.004C341.137,258.629 341.442,258.294 341.856,258.294L346.281,258.294C346.652,258.294 346.98,258.629 346.98,259.004L346.98,278.872L355.836,278.872C356.244,278.872 356.548,279.211 356.548,279.582L356.548,283.638C356.548,284.009 356.244,284.342 355.836,284.342L341.856,284.342C341.442,284.342 341.137,284.009 341.137,283.638L341.137,259.004Z" style="fill:rgb(41,51,87);fill-rule:nonzero;"/>
                <path d="M376.243,257.927C383.685,257.927 389.636,263.914 389.636,271.356C389.636,278.799 383.685,284.715 376.243,284.715C368.799,284.715 362.889,278.799 362.889,271.356C362.889,263.914 368.799,257.927 376.243,257.927M376.243,278.762C380.335,278.762 383.685,275.408 383.685,271.356C383.685,267.26 380.335,263.882 376.243,263.882C372.185,263.882 368.84,267.26 368.84,271.356C368.84,275.408 372.185,278.762 376.243,278.762" style="fill:rgb(41,51,87);fill-rule:nonzero;"/>
                <path d="M401.389,258.515C401.428,258.182 401.764,257.923 402.062,257.923L402.658,257.923C402.844,257.923 403.176,258.072 403.288,258.293L411.916,274.373L411.995,274.373L420.629,258.293C420.739,258.072 421.076,257.923 421.262,257.923L421.855,257.923C422.153,257.923 422.486,258.182 422.527,258.515L426.733,283.527C426.805,284.006 426.472,284.34 426.023,284.34L421.633,284.34C421.296,284.34 420.962,284.043 420.925,283.749L419.245,272.255L419.172,272.255L412.928,284.306C412.811,284.53 412.481,284.716 412.287,284.716L411.624,284.716C411.393,284.716 411.102,284.53 410.99,284.306L404.711,272.255L404.627,272.255L402.989,283.749C402.954,284.043 402.658,284.34 402.283,284.34L397.894,284.34C397.448,284.34 397.111,284.006 397.186,283.527L401.389,258.515Z" style="fill:rgb(41,51,87);fill-rule:nonzero;"/>
                <path d="M438.098,259.005C438.098,258.629 438.385,258.295 438.797,258.295L447.472,258.295C451.869,258.295 455.471,261.308 455.471,265.217C455.471,268.083 452.905,270.17 451.152,271.094C453.122,271.917 456.146,273.738 456.146,277.164C456.146,281.329 452.458,284.34 448.029,284.34L438.797,284.34C438.385,284.34 438.098,284.006 438.098,283.639L438.098,259.005ZM446.805,268.862C448.216,268.862 449.408,267.673 449.408,266.186C449.408,264.694 448.216,263.656 446.805,263.656L443.9,263.656L443.9,268.862L446.805,268.862ZM447.286,279.022C448.732,279.022 449.965,277.831 449.965,276.309C449.965,274.817 448.363,273.704 446.912,273.704L443.9,273.704L443.9,279.022L447.286,279.022Z" style="fill:rgb(41,51,87);fill-rule:nonzero;"/>
                <path d="M466.061,259.004C466.061,258.629 466.402,258.294 466.777,258.294L471.232,258.294C471.614,258.294 471.945,258.629 471.945,259.004L471.945,283.638C471.945,284.009 471.614,284.342 471.232,284.342L466.777,284.342C466.402,284.342 466.061,284.009 466.061,283.638L466.061,259.004Z" style="fill:rgb(41,51,87);fill-rule:nonzero;"/>
                <path d="M480.198,283.376L491.853,258.334C491.957,258.109 492.218,257.922 492.478,257.922L492.853,257.922C493.111,257.922 493.374,258.109 493.479,258.334L505.132,283.376C505.359,283.862 505.051,284.341 504.493,284.341L500.369,284.341C499.702,284.341 499.397,284.116 499.067,283.415L497.724,280.473L487.599,280.473L486.27,283.447C486.078,283.894 485.676,284.341 484.926,284.341L480.835,284.341C480.278,284.341 479.976,283.862 480.198,283.376M495.496,275.407L492.663,269.275L492.632,269.275L489.838,275.407L495.496,275.407Z" style="fill:rgb(41,51,87);fill-rule:nonzero;"/>
                <path d="M513.342,258.593C513.342,258.219 513.688,257.922 514.057,257.922L514.987,257.922L529.828,272.213L529.869,272.213L529.869,259.003C529.869,258.63 530.169,258.295 530.582,258.295L535.041,258.295C535.41,258.295 535.749,258.63 535.749,259.003L535.749,284.047C535.749,284.419 535.41,284.721 535.041,284.721L534.447,284.721C534.337,284.721 534.035,284.608 533.962,284.531L519.259,269.756L519.23,269.756L519.23,283.639C519.23,284.004 518.928,284.341 518.52,284.341L514.087,284.341C513.722,284.341 513.387,284.004 513.387,283.639L513.342,258.593Z" style="fill:rgb(41,51,87);fill-rule:nonzero;"/>
                <path d="M557.517,257.927C564.956,257.927 570.911,263.914 570.911,271.356C570.911,278.799 564.956,284.715 557.517,284.715C550.078,284.715 544.163,278.799 544.163,271.356C544.163,263.914 550.078,257.927 557.517,257.927M557.517,278.762C561.607,278.762 564.956,275.408 564.956,271.356C564.956,267.26 561.607,263.882 557.517,263.882C553.461,263.882 550.109,267.26 550.109,271.356C550.109,275.408 553.461,278.762 557.517,278.762" style="fill:rgb(41,51,87);fill-rule:nonzero;"/>
                <path d="M329.992,32.095C367.064,26.373 396.461,46.735 407.439,64.644C414.749,76.591 416.494,85.332 417.452,92.755C432.369,209.19 260.255,209.004 268.531,98.46C270.186,76.478 277.527,65.544 284.048,57.169C293.387,45.144 309.507,35.259 329.992,32.095M301.707,124.715C304.908,134.376 314.751,146.403 324.859,150.627C351.428,161.743 376.447,146.219 383.944,126.543C397.333,91.294 372.358,55.49 338.906,59.265C308.978,62.615 290.929,92.263 301.707,124.715" style="fill:rgb(41,51,87);"/>
                <path d="M569.521,179.133L538.411,179.133L538.411,33.134C548.282,33.134 569.594,33.134 569.594,49.17C569.594,61.198 569.521,179.133 569.521,179.133" style="fill:rgb(41,51,87);"/>
                <path d="M509.184,152.105L508.238,152.105C508.125,152.09 508.016,152.086 507.903,152.086L469.291,152.086L469.244,61.175L469.244,49.109C469.244,33.132 447.793,33.132 437.968,33.132L437.968,37.123L437.968,34.594L437.968,179.133L523.002,179.133C523.002,170.626 523.002,152.105 509.184,152.105" style="fill:rgb(41,51,87);"/>
                <path d="M249.645,62.221C237.876,35.007 207.738,30.306 182.307,30.323C182.263,30.323 182.216,30.326 182.169,30.326L182.169,30.323C172.296,30.323 150.209,33.395 150.209,33.395L150.187,179.134C160.057,179.134 182.149,179.134 182.149,163.08L182.149,162.797C182.154,162.797 182.169,162.782 182.169,162.782L182.169,139.538C235.508,147.47 268.596,106.013 249.645,62.221M204.554,113.777C192.611,115.029 182.017,113.471 182.017,113.471L182.031,59.46C182.031,59.46 191.644,58.84 204.116,59.643C216.572,60.444 225.279,72.527 225.279,87.287C225.279,102.044 216.505,112.527 204.554,113.777" style="fill:rgb(41,51,87);"/>
                <path d="M108.296,16.483C59.708,81.588 32.574,206.052 96.067,302.46C105.913,316.587 113.323,323.636 113.323,323.636C42.09,217.815 93.39,79.213 146.384,8.197L98.825,2.075C98.825,2.075 76.671,-4.137 67.377,11.216L108.296,16.483Z" style="fill:rgb(41,51,87);fill-rule:nonzero;"/>
                <path d="M109.125,323.69C26.332,234.409 35.667,92.861 85.562,26.016C85.562,26.016 48.318,21.577 41.07,20.821C31.985,19.871 13.001,15.779 8.743,36.876C-32.932,243.161 109.125,323.69 109.125,323.69" style="fill:rgb(0,163,199);fill-rule:nonzero;"/>
                <path d="M150.33,306.727C150.33,306.477 150.554,306.252 150.804,306.252L151.805,306.252C152.055,306.252 152.281,306.477 152.281,306.727L152.281,323.284C152.281,323.534 152.055,323.759 151.805,323.759L150.804,323.759C150.554,323.759 150.33,323.534 150.33,323.284L150.33,306.727Z" style="fill:rgb(41,51,87);fill-rule:nonzero;"/>
                <path d="M160.887,306.452C160.887,306.202 161.112,306.002 161.362,306.002L161.987,306.002L173.266,320.057L173.317,320.057L173.317,306.727C173.317,306.477 173.517,306.252 173.792,306.252L174.667,306.252C174.918,306.252 175.142,306.477 175.142,306.727L175.142,323.558C175.142,323.809 174.918,324.008 174.667,324.008L174.218,324.008L162.738,309.678L162.713,309.678L162.713,323.284C162.713,323.533 162.512,323.759 162.238,323.759L161.362,323.759C161.112,323.759 160.887,323.533 160.887,323.284L160.887,306.452Z" style="fill:rgb(41,51,87);fill-rule:nonzero;"/>
                <path d="M182.627,321.133C182.752,320.983 182.877,320.808 183.002,320.658C183.252,320.333 183.527,320.133 183.878,320.433C184.052,320.583 185.878,322.334 188.105,322.334C190.13,322.334 191.456,321.059 191.456,319.583C191.456,317.857 189.955,316.831 187.079,315.632C184.328,314.43 182.677,313.305 182.677,310.454C182.677,308.754 184.028,306.003 188.004,306.003C190.455,306.003 192.281,307.278 192.281,307.278C192.431,307.354 192.731,307.654 192.431,308.129C192.331,308.279 192.231,308.454 192.13,308.604C191.905,308.954 191.655,309.054 191.255,308.828C191.081,308.729 189.504,307.678 187.979,307.678C185.328,307.678 184.527,309.379 184.527,310.429C184.527,312.105 185.803,313.081 187.904,313.955C191.28,315.331 193.456,316.607 193.456,319.508C193.456,322.108 190.981,324.009 188.054,324.009C185.103,324.009 183.102,322.284 182.777,321.984C182.577,321.809 182.327,321.608 182.627,321.133" style="fill:rgb(41,51,87);fill-rule:nonzero;"/>
                <path d="M203.065,307.928L198.713,307.928C198.439,307.928 198.238,307.702 198.238,307.453L198.238,306.727C198.238,306.477 198.439,306.252 198.713,306.252L209.317,306.252C209.593,306.252 209.793,306.477 209.793,306.727L209.793,307.453C209.793,307.702 209.593,307.928 209.317,307.928L204.965,307.928L204.965,323.284C204.965,323.533 204.741,323.759 204.49,323.759L203.54,323.759C203.29,323.759 203.065,323.533 203.065,323.284L203.065,307.928Z" style="fill:rgb(41,51,87);fill-rule:nonzero;"/>
                <path d="M216.049,306.727C216.049,306.477 216.274,306.252 216.524,306.252L217.525,306.252C217.775,306.252 218,306.477 218,306.727L218,323.284C218,323.534 217.775,323.759 217.525,323.759L216.524,323.759C216.274,323.759 216.049,323.534 216.049,323.284L216.049,306.727Z" style="fill:rgb(41,51,87);fill-rule:nonzero;"/>
                <path d="M229.082,307.928L224.731,307.928C224.456,307.928 224.256,307.702 224.256,307.453L224.256,306.727C224.256,306.477 224.456,306.252 224.731,306.252L235.335,306.252C235.61,306.252 235.81,306.477 235.81,306.727L235.81,307.453C235.81,307.702 235.61,307.928 235.335,307.928L230.983,307.928L230.983,323.284C230.983,323.533 230.758,323.759 230.508,323.759L229.558,323.759C229.307,323.759 229.082,323.533 229.082,323.284L229.082,307.928Z" style="fill:rgb(41,51,87);fill-rule:nonzero;"/>
                <path d="M241.842,306.727C241.842,306.477 242.067,306.252 242.317,306.252L243.267,306.252C243.543,306.252 243.742,306.477 243.742,306.727L243.742,317.156C243.742,320.007 245.518,322.234 248.445,322.234C251.396,322.234 253.196,320.058 253.196,317.207L253.196,306.727C253.196,306.477 253.397,306.252 253.672,306.252L254.622,306.252C254.872,306.252 255.097,306.477 255.097,306.727L255.097,317.306C255.097,321.109 252.396,324.009 248.445,324.009C244.518,324.009 241.842,321.109 241.842,317.306L241.842,306.727Z" style="fill:rgb(41,51,87);fill-rule:nonzero;"/>
                <path d="M271.235,306.002C273.761,306.002 275.587,306.877 277.288,308.327C277.487,308.528 277.513,308.828 277.312,309.028L276.637,309.703C276.437,309.953 276.237,309.928 275.987,309.678C274.686,308.553 272.911,307.803 271.211,307.803C267.258,307.803 264.233,311.129 264.233,315.006C264.233,318.857 267.258,322.183 271.211,322.183C273.386,322.183 274.661,321.307 275.987,320.308C276.237,320.107 276.437,320.133 276.587,320.232L277.338,320.908C277.538,321.058 277.487,321.408 277.312,321.583C275.612,323.233 273.461,324.008 271.235,324.008C266.234,324.008 262.207,320.032 262.207,315.031C262.207,310.029 266.234,306.002 271.235,306.002" style="fill:rgb(41,51,87);fill-rule:nonzero;"/>
                <path d="M284.671,306.727C284.671,306.477 284.896,306.252 285.146,306.252L286.147,306.252C286.397,306.252 286.622,306.477 286.622,306.727L286.622,323.284C286.622,323.534 286.397,323.759 286.147,323.759L285.146,323.759C284.896,323.759 284.671,323.534 284.671,323.284L284.671,306.727Z" style="fill:rgb(41,51,87);fill-rule:nonzero;"/>
                <path d="M302.932,306.003C307.933,306.003 311.935,310.029 311.935,315.032C311.935,320.033 307.933,324.009 302.932,324.009C297.93,324.009 293.953,320.033 293.953,315.032C293.953,310.029 297.93,306.003 302.932,306.003M302.932,322.259C306.908,322.259 310.184,319.008 310.184,315.032C310.184,311.054 306.908,307.753 302.932,307.753C298.955,307.753 295.704,311.054 295.704,315.032C295.704,319.008 298.955,322.259 302.932,322.259M300.681,303.627C300.581,303.427 300.681,303.226 300.831,303.152L304.582,301.051C304.732,300.951 305.108,300.901 305.233,301.125L305.682,302.026C305.783,302.227 305.733,302.476 305.533,302.552L301.506,304.227C301.156,304.377 301.031,304.377 300.931,304.177L300.681,303.627Z" style="fill:rgb(41,51,87);fill-rule:nonzero;"/>
                <path d="M319.27,306.452C319.27,306.202 319.495,306.002 319.745,306.002L320.37,306.002L331.649,320.057L331.7,320.057L331.7,306.727C331.7,306.477 331.9,306.252 332.175,306.252L333.05,306.252C333.301,306.252 333.525,306.477 333.525,306.727L333.525,323.558C333.525,323.809 333.301,324.008 333.05,324.008L332.601,324.008L321.121,309.678L321.096,309.678L321.096,323.284C321.096,323.533 320.896,323.759 320.621,323.759L319.745,323.759C319.495,323.759 319.27,323.533 319.27,323.284L319.27,306.452Z" style="fill:rgb(41,51,87);fill-rule:nonzero;"/>
                <path d="M350.967,306.727C350.967,306.477 351.192,306.252 351.442,306.252L352.392,306.252C352.668,306.252 352.867,306.477 352.867,306.727L352.867,317.156C352.867,320.007 354.643,322.234 357.569,322.234C360.521,322.234 362.321,320.058 362.321,317.207L362.321,306.727C362.321,306.477 362.522,306.252 362.796,306.252L363.747,306.252C363.997,306.252 364.222,306.477 364.222,306.727L364.222,317.306C364.222,321.109 361.521,324.009 357.569,324.009C353.643,324.009 350.967,321.109 350.967,317.306L350.967,306.727Z" style="fill:rgb(41,51,87);fill-rule:nonzero;"/>
                <path d="M372.606,306.452C372.606,306.202 372.831,306.002 373.081,306.002L373.706,306.002L384.985,320.057L385.036,320.057L385.036,306.727C385.036,306.477 385.235,306.252 385.511,306.252L386.386,306.252C386.636,306.252 386.861,306.477 386.861,306.727L386.861,323.558C386.861,323.809 386.636,324.008 386.386,324.008L385.936,324.008L374.457,309.678L374.431,309.678L374.431,323.284C374.431,323.533 374.231,323.759 373.956,323.759L373.081,323.759C372.831,323.759 372.606,323.533 372.606,323.284L372.606,306.452Z" style="fill:rgb(41,51,87);fill-rule:nonzero;"/>
                <path d="M395.472,306.727C395.472,306.477 395.697,306.252 395.947,306.252L396.948,306.252C397.198,306.252 397.423,306.477 397.423,306.727L397.423,323.284C397.423,323.534 397.198,323.759 396.948,323.759L395.947,323.759C395.697,323.759 395.472,323.534 395.472,323.284L395.472,306.727Z" style="fill:rgb(41,51,87);fill-rule:nonzero;"/>
                <path d="M403.653,306.902C403.503,306.577 403.703,306.252 404.078,306.252L405.079,306.252C405.304,306.252 405.454,306.402 405.504,306.527L411.731,320.532L411.832,320.532L418.059,306.527C418.109,306.402 418.284,306.252 418.484,306.252L419.484,306.252C419.859,306.252 420.06,306.577 419.91,306.902L412.307,323.734C412.232,323.884 412.081,324.008 411.882,324.008L411.631,324.008C411.456,324.008 411.281,323.884 411.206,323.734L403.653,306.902Z" style="fill:rgb(41,51,87);fill-rule:nonzero;"/>
                <path d="M426.142,306.727C426.142,306.477 426.343,306.252 426.617,306.252L436.471,306.252C436.746,306.252 436.946,306.477 436.946,306.727L436.946,307.453C436.946,307.703 436.746,307.928 436.471,307.928L428.068,307.928L428.068,314.031L435.246,314.031C435.496,314.031 435.721,314.255 435.721,314.506L435.721,315.231C435.721,315.507 435.496,315.706 435.246,315.706L428.068,315.706L428.068,322.083L436.471,322.083C436.746,322.083 436.946,322.309 436.946,322.558L436.946,323.284C436.946,323.534 436.746,323.759 436.471,323.759L426.617,323.759C426.343,323.759 426.142,323.534 426.142,323.284L426.142,306.727Z" style="fill:rgb(41,51,87);fill-rule:nonzero;"/>
                <path d="M444.455,306.727C444.455,306.478 444.656,306.252 444.93,306.252L451.408,306.252C454.409,306.252 456.86,308.604 456.86,311.579C456.86,313.881 455.334,315.807 453.158,316.681L456.585,323.035C456.76,323.36 456.585,323.759 456.159,323.759L454.884,323.759C454.659,323.759 454.534,323.635 454.484,323.534L451.158,316.907L446.381,316.907L446.381,323.284C446.381,323.534 446.156,323.759 445.906,323.759L444.93,323.759C444.656,323.759 444.455,323.534 444.455,323.284L444.455,306.727ZM451.283,315.256C453.209,315.256 454.884,313.655 454.884,311.605C454.884,309.704 453.209,308.078 451.283,308.078L446.43,308.078L446.43,315.256L451.283,315.256Z" style="fill:rgb(41,51,87);fill-rule:nonzero;"/>
                <path d="M463.368,321.133C463.493,320.983 463.618,320.808 463.743,320.658C463.993,320.333 464.268,320.133 464.619,320.433C464.793,320.583 466.619,322.334 468.846,322.334C470.871,322.334 472.197,321.059 472.197,319.583C472.197,317.857 470.696,316.831 467.82,315.632C465.069,314.43 463.418,313.305 463.418,310.454C463.418,308.754 464.769,306.003 468.745,306.003C471.196,306.003 473.022,307.278 473.022,307.278C473.172,307.354 473.472,307.654 473.172,308.129C473.072,308.279 472.972,308.454 472.871,308.604C472.647,308.954 472.396,309.054 471.996,308.828C471.822,308.729 470.246,307.678 468.72,307.678C466.069,307.678 465.269,309.379 465.269,310.429C465.269,312.105 466.545,313.081 468.645,313.955C472.021,315.331 474.198,316.607 474.198,319.508C474.198,322.108 471.722,324.009 468.795,324.009C465.844,324.009 463.843,322.284 463.518,321.984C463.318,321.809 463.068,321.608 463.368,321.133" style="fill:rgb(41,51,87);fill-rule:nonzero;"/>
                <path d="M481.33,306.727C481.33,306.477 481.555,306.252 481.805,306.252L482.806,306.252C483.056,306.252 483.281,306.477 483.281,306.727L483.281,323.284C483.281,323.534 483.056,323.759 482.806,323.759L481.805,323.759C481.555,323.759 481.33,323.534 481.33,323.284L481.33,306.727Z" style="fill:rgb(41,51,87);fill-rule:nonzero;"/>
                <path d="M494.363,307.928L490.011,307.928C489.736,307.928 489.536,307.702 489.536,307.453L489.536,306.727C489.536,306.477 489.736,306.252 490.011,306.252L500.615,306.252C500.891,306.252 501.091,306.477 501.091,306.727L501.091,307.453C501.091,307.702 500.891,307.928 500.615,307.928L496.263,307.928L496.263,323.284C496.263,323.533 496.038,323.759 495.788,323.759L494.838,323.759C494.588,323.759 494.363,323.533 494.363,323.284L494.363,307.928Z" style="fill:rgb(41,51,87);fill-rule:nonzero;"/>
                <path d="M503.996,323.109L511.599,306.277C511.674,306.128 511.799,306.003 512.024,306.003L512.274,306.003C512.5,306.003 512.624,306.128 512.699,306.277L520.252,323.109C520.402,323.434 520.203,323.76 519.827,323.76L518.827,323.76C518.602,323.76 518.452,323.609 518.401,323.485L516.551,319.357L507.672,319.357L505.847,323.485C505.797,323.609 505.647,323.76 505.421,323.76L504.421,323.76C504.046,323.76 503.846,323.434 503.996,323.109M515.876,317.807C514.65,315.081 513.45,312.33 512.224,309.604L512.024,309.604L508.373,317.807L515.876,317.807Z" style="fill:rgb(41,51,87);fill-rule:nonzero;"/>
                <path d="M526.486,306.727C526.486,306.478 526.687,306.252 526.961,306.252L533.439,306.252C536.44,306.252 538.891,308.604 538.891,311.579C538.891,313.881 537.365,315.807 535.189,316.681L538.616,323.035C538.791,323.36 538.616,323.759 538.191,323.759L536.916,323.759C536.69,323.759 536.565,323.635 536.515,323.534L533.189,316.907L528.412,316.907L528.412,323.284C528.412,323.534 528.187,323.759 527.937,323.759L526.961,323.759C526.687,323.759 526.486,323.534 526.486,323.284L526.486,306.727ZM533.314,315.256C535.24,315.256 536.916,313.655 536.916,311.605C536.916,309.704 535.24,308.078 533.314,308.078L528.462,308.078L528.462,315.256L533.314,315.256Z" style="fill:rgb(41,51,87);fill-rule:nonzero;"/>
                <path d="M546.525,306.727C546.525,306.477 546.75,306.252 547.001,306.252L548.001,306.252C548.251,306.252 548.476,306.477 548.476,306.727L548.476,323.284C548.476,323.534 548.251,323.759 548.001,323.759L547.001,323.759C546.75,323.759 546.525,323.534 546.525,323.284L546.525,306.727Z" style="fill:rgb(41,51,87);fill-rule:nonzero;"/>
                <path d="M554.681,323.109L562.284,306.277C562.359,306.128 562.484,306.003 562.709,306.003L562.959,306.003C563.185,306.003 563.309,306.128 563.384,306.277L570.937,323.109C571.087,323.434 570.888,323.76 570.512,323.76L569.512,323.76C569.287,323.76 569.136,323.609 569.086,323.485L567.236,319.357L558.357,319.357L556.532,323.485C556.482,323.609 556.332,323.76 556.106,323.76L555.106,323.76C554.731,323.76 554.531,323.434 554.681,323.109M566.561,317.807C565.335,315.081 564.135,312.33 562.909,309.604L562.709,309.604L559.058,317.807L566.561,317.807Z" style="fill:rgb(41,51,87);fill-rule:nonzero;"/>
            </g>
        </g>
    </g>
</svg>
