<?xml version="1.0" encoding="UTF-8" standalone="no"?><!DOCTYPE svg PUBLIC "-//W3C//DTD SVG 1.1//EN" "http://www.w3.org/Graphics/SVG/1.1/DTD/svg11.dtd"><svg width="96px" height="41px" version="1.1" xmlns="http://www.w3.org/2000/svg" xmlns:xlink="http://www.w3.org/1999/xlink" xml:space="preserve" xmlns:serif="http://www.serif.com/" style="fill-rule:evenodd;clip-rule:evenodd;stroke-linejoin:round;stroke-miterlimit:2;"><g transform="matrix(1,0,0,1,-7106.24,-1845.35)"><g transform="matrix(0.566797,0,0,0.407865,-848.099,1096.52)"><g transform="matrix(1.7643,0,0,2.56993,1496.3,-2769.57)"><path d="M7202.07,1792.09L7106.24,1792.09L7106.24,1822.99C7106.24,1827.36 7109.94,1830.89 7114.52,1830.89C7132.64,1830.89 7175.67,1830.89 7193.79,1830.89C7198.37,1830.89 7202.07,1827.36 7202.07,1822.99C7202.07,1811.65 7202.07,1792.09 7202.07,1792.09Z" style="fill:rgb(226,87,76);"/></g></g><g transform="matrix(0.566797,0,0,0.407865,-848.099,1096.52)"><g transform="matrix(2.34716,0,0,3.26177,-18306.2,-973.981)"><g transform="matrix(21.0469,0,0,21.0469,13792.3,884.125)"><path d="M0.333,-0.699C0.44,-0.699 0.519,-0.678 0.568,-0.637C0.616,-0.595 0.641,-0.531 0.641,-0.445C0.641,-0.358 0.616,-0.295 0.566,-0.255C0.515,-0.215 0.438,-0.195 0.335,-0.195L0.242,-0.195L0.242,-0L0.086,-0L0.086,-0.699L0.333,-0.699ZM0.347,-0.33C0.399,-0.33 0.434,-0.341 0.453,-0.362C0.472,-0.383 0.481,-0.413 0.481,-0.454C0.481,-0.494 0.469,-0.523 0.445,-0.54C0.42,-0.557 0.382,-0.565 0.331,-0.565L0.242,-0.565L0.242,-0.33L0.347,-0.33Z" style="fill:white;fill-rule:nonzero;"/></g><g transform="matrix(21.0469,0,0,21.0469,13806.6,884.125)"><path d="M0.333,-0.699C0.458,-0.699 0.553,-0.669 0.62,-0.608C0.687,-0.547 0.72,-0.462 0.72,-0.353C0.72,-0.244 0.688,-0.158 0.623,-0.095C0.558,-0.032 0.458,-0 0.325,-0L0.086,-0L0.086,-0.699L0.333,-0.699ZM0.341,-0.138C0.412,-0.138 0.467,-0.156 0.506,-0.192C0.544,-0.228 0.563,-0.28 0.563,-0.349C0.563,-0.418 0.544,-0.471 0.506,-0.508C0.467,-0.545 0.408,-0.563 0.329,-0.563L0.242,-0.563L0.242,-0.138L0.341,-0.138Z" style="fill:white;fill-rule:nonzero;"/></g><g transform="matrix(21.0469,0,0,21.0469,13822.8,884.125)"><path d="M0.566,-0.699L0.566,-0.562L0.242,-0.562L0.242,-0.411L0.55,-0.411L0.55,-0.274L0.242,-0.274L0.242,-0L0.086,-0L0.086,-0.699L0.566,-0.699Z" style="fill:white;fill-rule:nonzero;"/></g></g></g></g></svg>