<?xml version="1.0" encoding="UTF-8" standalone="no"?><!DOCTYPE svg PUBLIC "-//W3C//DTD SVG 1.1//EN" "http://www.w3.org/Graphics/SVG/1.1/DTD/svg11.dtd"><svg width="96px" height="41px" version="1.1" xmlns="http://www.w3.org/2000/svg" xmlns:xlink="http://www.w3.org/1999/xlink" xml:space="preserve" xmlns:serif="http://www.serif.com/" style="fill-rule:evenodd;clip-rule:evenodd;stroke-linejoin:round;stroke-miterlimit:2;"><g transform="matrix(1,0,0,1,-7912.04,-1845.35)"><g transform="matrix(0.566797,0,0,0.407865,-848.099,1096.52)"><g transform="matrix(1.7643,0,0,2.56993,2917.97,-2769.57)"><path d="M7202.07,1792.09L7106.24,1792.09L7106.24,1822.99C7106.24,1827.36 7109.94,1830.89 7114.52,1830.89C7132.64,1830.89 7175.67,1830.89 7193.79,1830.89C7198.37,1830.89 7202.07,1827.36 7202.07,1822.99C7202.07,1811.65 7202.07,1792.09 7202.07,1792.09Z" style="fill:rgb(181,54,40);"/></g></g><g transform="matrix(0.566797,0,0,0.407865,-848.099,1096.52)"><g transform="matrix(2.34716,0,0,3.26177,-16882.3,-973.981)"><g transform="matrix(21.0469,0,0,21.0469,13795.2,884.125)"><path d="M0.344,-0.254L0.522,-0.699L0.691,-0.699L0.41,-0L0.278,-0L-0.003,-0.699L0.166,-0.699L0.344,-0.254Z" style="fill:white;fill-rule:nonzero;"/></g><g transform="matrix(21.0469,0,0,21.0469,13809.7,884.125)"><rect x="0.086" y="-0.699" width="0.156" height="0.699" style="fill:white;fill-rule:nonzero;"/></g><g transform="matrix(21.0469,0,0,21.0469,13816.6,884.125)"><path d="M0.333,-0.699C0.458,-0.699 0.553,-0.669 0.62,-0.608C0.687,-0.547 0.72,-0.462 0.72,-0.353C0.72,-0.244 0.688,-0.158 0.623,-0.095C0.558,-0.032 0.458,-0 0.325,-0L0.086,-0L0.086,-0.699L0.333,-0.699ZM0.341,-0.138C0.412,-0.138 0.467,-0.156 0.506,-0.192C0.544,-0.228 0.563,-0.28 0.563,-0.349C0.563,-0.418 0.544,-0.471 0.506,-0.508C0.467,-0.545 0.408,-0.563 0.329,-0.563L0.242,-0.563L0.242,-0.138L0.341,-0.138Z" style="fill:white;fill-rule:nonzero;"/></g></g></g></g></svg>